<?xml version="1.0" standalone="no"?>
<!DOCTYPE svg PUBLIC "-//W3C//DTD SVG 20010904//EN"
 "http://www.w3.org/TR/2001/REC-SVG-20010904/DTD/svg10.dtd">
<svg version="1.0" xmlns="http://www.w3.org/2000/svg"
 width="160.000000pt" height="160.000000pt" viewBox="0 0 160.000000 160.000000"
 preserveAspectRatio="xMidYMid meet">
<metadata>
Created by potrace 1.16, written by Peter Selinger 2001-2019
</metadata>
<g transform="translate(0.000000,160.000000) scale(0.100000,-0.100000)"
fill="#000000" stroke="none">
<path d="M0 800 l0 -800 800 0 800 0 0 800 0 800 -800 0 -800 0 0 -800z m1360
212 c-63 -32 -196 -112 -295 -178 -99 -66 -201 -133 -228 -148 -77 -44 -173
-76 -229 -76 l-51 0 -81 85 c-67 69 -95 90 -158 120 -42 19 -84 35 -92 35 -9
0 -16 5 -16 10 0 6 22 10 49 10 43 0 60 -7 124 -50 45 -30 91 -71 116 -105 53
-69 71 -79 139 -72 75 8 178 60 417 209 195 122 294 177 365 204 70 25 53 13
-60 -44z m-73 25 c-21 -12 -133 -83 -248 -158 -266 -173 -339 -211 -409 -212
l-53 -1 -66 72 c-36 39 -88 85 -115 101 l-50 31 40 0 c36 0 45 -6 122 -87 80
-82 86 -86 127 -86 55 0 174 56 316 149 132 86 350 214 363 214 6 -1 -6 -11
-27 -23z m268 5 c-6 -5 -37 -19 -70 -32 -116 -45 -202 -94 -408 -231 -304
-203 -404 -248 -508 -229 -61 12 -88 29 -135 87 -20 24 -49 56 -63 70 -41 39
-142 83 -233 100 -111 21 -119 25 -83 33 60 15 125 10 189 -14 92 -35 111 -48
208 -149 l86 -90 84 5 c105 5 167 34 403 188 173 113 361 213 470 249 69 23
72 24 60 13z"/>
</g>
</svg>
